<?xml version="1.0" encoding="utf-8"?>
<!-- Generator: Adobe Illustrator 18.0.0, SVG Export Plug-In . SVG Version: 6.00 Build 0)  -->
<!DOCTYPE svg PUBLIC "-//W3C//DTD SVG 1.1//EN" "http://www.w3.org/Graphics/SVG/1.1/DTD/svg11.dtd">
<svg version="1.1" id="Layer_1" xmlns="http://www.w3.org/2000/svg" xmlns:xlink="http://www.w3.org/1999/xlink" x="0px" y="0px"
	 viewBox="0 0 200 200" enable-background="new 0 0 200 200" xml:space="preserve">
<g>
	<path fill="#999999" d="M100,1.1C45.4,1.1,1.1,45.4,1.1,100s44.3,98.9,98.9,98.9s98.9-44.3,98.9-98.9S154.6,1.1,100,1.1z
		 M108.1,169.8H88.6v-19.6h19.5V169.8z M132.2,88.6c-4.4,6.7-10.3,13.6-17.6,20.7c-3.4,3.4-5.5,6.5-6.2,9.2c-0.7,2.7-1.1,7-1.1,12.7
		H88.8v0c0.1-9.1,0.8-15.5,2.4-19c1.5-3.5,5.5-8.2,11.9-14c6.2-7.4,10.7-13,13.3-17c2.7-3.9,3.9-8.7,3.9-14.4
		c0-6.7-1.8-11.8-5.3-15.4S106.3,46,99.7,46c-5.7,0-10.6,1.6-14.7,4.7c-4,3.1-6,7.7-6,13.7H61.3L61,63.9
		c-0.2-10.1,3.4-18.3,10.7-24.3c7.3-6.1,16.7-9.2,28-9.2c12.4,0,22,3.2,28.9,9.5s10.3,15.2,10.3,26.5
		C138.9,74.5,136.7,81.9,132.2,88.6z"/>
</g>
</svg>
